name rise49.8558peak67.6521fall70.3087.mot
datacolumns 19
datarows 26
range 15.08995800000000 15.13161200000000
endheader
time	ground_force1_vx	ground_force1_vy	ground_force1_vz	ground_force1_px	ground_force1_py	ground_force1_pz	ground_force2_vx	ground_force2_vy	ground_force2_vz	ground_force2_px	ground_force2_py	ground_force2_pz	ground_torque1_x	ground_torque1_y	ground_torque1_z	ground_torque2_x	ground_torque2_y	ground_torque2_z	
15.08995800000000	-8.86078900000000	45.26820500000000	-10.34431800000000	0.37216500000000	0.00000000000000	0.11001900000000	-47.41374100000000	797.68832699999996	-61.71634200000000	0.19772500000000	0.00000000000000	-0.09087000000000	0.00000000000000	-8.09720300000000	0.00000000000000	0.00000000000000	-30.74479500000000	0.00000000000000	
15.09161300000000	-9.61535500000000	51.77378900000000	-11.42287700000000	0.37660600000000	0.00000000000000	0.11066700000000	-47.85865100000000	795.29796299999998	-61.33831700000000	0.19672900000000	0.00000000000000	-0.09080300000000	0.00000000000000	-9.01303900000000	0.00000000000000	0.00000000000000	-30.56095400000000	0.00000000000000	
15.09327800000000	-10.22408800000000	58.22266900000000	-12.38064600000000	0.38079000000000	0.00000000000000	0.11127200000000	-48.31288600000000	792.81027900000004	-60.93868600000000	0.19573400000000	0.00000000000000	-0.09073400000000	0.00000000000000	-9.84744100000000	0.00000000000000	0.00000000000000	-30.37376400000000	0.00000000000000	
15.09495300000000	-10.67284100000000	64.55045699999999	-13.20092000000000	0.38475000000000	0.00000000000000	0.11184000000000	-48.77666500000000	790.22510299999999	-60.51761800000000	0.19474000000000	0.00000000000000	-0.09066100000000	0.00000000000000	-10.58611400000000	0.00000000000000	0.00000000000000	-30.18348300000000	0.00000000000000	
15.09661100000000	-10.95543000000000	70.71742800000000	-13.87502000000000	0.38851400000000	0.00000000000000	0.11237400000000	-49.25015800000000	787.54220699999996	-60.07530100000000	0.19374800000000	0.00000000000000	-0.09058600000000	0.00000000000000	-11.22095500000000	0.00000000000000	0.00000000000000	-29.99036200000000	0.00000000000000	
15.09827800000000	-11.07298100000000	76.70800300000001	-14.40177300000000	0.39210500000000	0.00000000000000	0.11288100000000	-49.73348300000000	784.76130200000000	-59.61194700000000	0.19275900000000	0.00000000000000	-0.09050700000000	0.00000000000000	-11.74976500000000	0.00000000000000	0.00000000000000	-29.79464800000000	0.00000000000000	
15.09995400000000	-11.03280400000000	82.52833900000000	-14.78645700000000	0.39554200000000	0.00000000000000	0.11336200000000	-50.22669900000000	781.88203499999997	-59.12778800000000	0.19177400000000	0.00000000000000	-0.09042500000000	0.00000000000000	-12.17551600000000	0.00000000000000	0.00000000000000	-29.59658000000000	0.00000000000000	
15.10161100000000	-10.84694500000000	88.20253300000000	-15.03940900000000	0.39884200000000	0.00000000000000	0.11382100000000	-50.72981100000000	778.90398100000004	-58.62307800000000	0.19079200000000	0.00000000000000	-0.09034000000000	0.00000000000000	-12.50532200000000	0.00000000000000	0.00000000000000	-29.39639100000000	0.00000000000000	
15.10327800000000	-10.53061000000000	93.76802300000000	-15.17445400000000	0.40201700000000	0.00000000000000	0.11426000000000	-51.24276100000000	775.82664899999997	-58.09809300000000	0.18981600000000	0.00000000000000	-0.09025200000000	0.00000000000000	-12.74924300000000	0.00000000000000	0.00000000000000	-29.19430500000000	0.00000000000000	
15.10494100000000	-10.10061100000000	99.27067599999999	-15.20733300000000	0.40508000000000	0.00000000000000	0.11468100000000	-51.76542700000000	772.64946999999995	-57.55313000000000	0.18884500000000	0.00000000000000	-0.09016100000000	0.00000000000000	-12.91905500000000	0.00000000000000	0.00000000000000	-28.99053600000000	0.00000000000000	
15.10661000000000	-9.57394200000000	104.76004399999999	-15.15423900000000	0.40804000000000	0.00000000000000	0.11508600000000	-52.29762600000000	769.37180000000001	-56.98850700000000	0.18788100000000	0.00000000000000	-0.09006600000000	0.00000000000000	-13.02708300000000	0.00000000000000	0.00000000000000	-28.78528900000000	0.00000000000000	
15.10827300000000	-8.96659900000000	110.28511700000000	-15.03057600000000	0.41090700000000	0.00000000000000	0.11547700000000	-52.83910400000000	765.99291900000003	-56.40456400000000	0.18692400000000	0.00000000000000	-0.08996800000000	0.00000000000000	-13.08520000000000	0.00000000000000	0.00000000000000	-28.57875800000000	0.00000000000000	
15.10995600000000	-8.29267700000000	115.89083300000000	-14.84999300000000	0.41368600000000	0.00000000000000	0.11585400000000	-53.38954200000000	762.51203099999998	-55.80166200000000	0.18597600000000	0.00000000000000	-0.08986700000000	0.00000000000000	-13.10401200000000	0.00000000000000	0.00000000000000	-28.37112500000000	0.00000000000000	
15.11160700000000	-7.56377000000000	121.61547800000000	-14.62372000000000	0.41638400000000	0.00000000000000	0.11622000000000	-53.94854800000000	758.92826200000002	-55.18018300000000	0.18503600000000	0.00000000000000	-0.08976300000000	0.00000000000000	-13.09229900000000	0.00000000000000	0.00000000000000	-28.16255800000000	0.00000000000000	
15.11327400000000	-6.78867400000000	127.48901300000000	-14.36020300000000	0.41900800000000	0.00000000000000	0.11657400000000	-54.51566000000000	755.24066300000004	-54.54052900000000	0.18410600000000	0.00000000000000	-0.08965500000000	0.00000000000000	-13.05667600000000	0.00000000000000	0.00000000000000	-27.95321500000000	0.00000000000000	
15.11493900000000	-5.97335200000000	133.53229600000000	-14.06502000000000	0.42156000000000	0.00000000000000	0.11691700000000	-55.09034200000000	751.44821100000001	-53.88312600000000	0.18318700000000	0.00000000000000	-0.08954400000000	0.00000000000000	-13.00148300000000	0.00000000000000	0.00000000000000	-27.74323600000000	0.00000000000000	
15.11661300000000	-5.12112000000000	139.75708800000001	-13.74102000000000	0.42404600000000	0.00000000000000	0.11725100000000	-55.67198400000000	747.54981199999997	-53.20841600000000	0.18227900000000	0.00000000000000	-0.08943000000000	0.00000000000000	-12.92887000000000	0.00000000000000	0.00000000000000	-27.53274900000000	0.00000000000000	
15.11827400000000	-4.23300000000000	146.16670099999999	-13.38865300000000	0.42646800000000	0.00000000000000	0.11757600000000	-56.25990300000000	743.54430400000001	-52.51686600000000	0.18138400000000	0.00000000000000	-0.08931200000000	0.00000000000000	-12.83902200000000	0.00000000000000	0.00000000000000	-27.32186600000000	0.00000000000000	
15.11995300000000	-3.30818800000000	152.75712700000000	-13.00640600000000	0.42883000000000	0.00000000000000	0.11789200000000	-56.85333800000000	739.43045800000004	-51.80896100000000	0.18050200000000	0.00000000000000	-0.08919100000000	0.00000000000000	-12.73050000000000	0.00000000000000	0.00000000000000	-27.11068200000000	0.00000000000000	
15.12160800000000	-2.34456800000000	159.51846499999999	-12.59132700000000	0.43113500000000	0.00000000000000	0.11820000000000	-57.45145300000000	735.20698600000003	-51.08520500000000	0.17963400000000	0.00000000000000	-0.08906700000000	0.00000000000000	-12.60064200000000	0.00000000000000	0.00000000000000	-26.89927900000000	0.00000000000000	
15.12327400000000	-1.33924200000000	166.43648899999999	-12.13954400000000	0.43338300000000	0.00000000000000	0.11850000000000	-58.05333800000000	730.87254499999995	-50.34612300000000	0.17878000000000	0.00000000000000	-0.08893900000000	0.00000000000000	-12.44598400000000	0.00000000000000	0.00000000000000	-26.68771700000000	0.00000000000000	
15.12494200000000	-0.28901300000000	173.49421500000000	-11.64677600000000	0.43557800000000	0.00000000000000	0.11879300000000	-58.65800400000000	726.42573900000002	-49.59226000000000	0.17794300000000	0.00000000000000	-0.08880800000000	0.00000000000000	-12.26266600000000	0.00000000000000	0.00000000000000	-26.47604300000000	0.00000000000000	
15.12661000000000	0.80918000000000	180.67335399999999	-11.10877300000000	0.43772000000000	0.00000000000000	0.11907900000000	-59.26438900000000	721.86513300000001	-48.82417900000000	0.17712100000000	0.00000000000000	-0.08867300000000	0.00000000000000	-12.04680100000000	0.00000000000000	0.00000000000000	-26.26428300000000	0.00000000000000	
15.12828000000000	1.95792100000000	187.95556099999999	-10.52168900000000	0.43981000000000	0.00000000000000	0.11935700000000	-59.87135800000000	717.18925200000001	-48.04246100000000	0.17631700000000	0.00000000000000	-0.08853500000000	0.00000000000000	-11.79478400000000	0.00000000000000	0.00000000000000	-26.05244800000000	0.00000000000000	
15.12994200000000	3.15907000000000	195.32342800000001	-9.88235100000000	0.44185100000000	0.00000000000000	0.11962900000000	-60.47770000000000	712.39659400000005	-47.24770600000000	0.17553000000000	0.00000000000000	-0.08839400000000	0.00000000000000	-11.50352100000000	0.00000000000000	0.00000000000000	-25.84052900000000	0.00000000000000	
15.13161200000000	4.41360100000000	202.76121100000000	-9.18844500000000	0.44384200000000	0.00000000000000	0.11989500000000	-61.08213500000000	707.48563600000000	-46.44053100000000	0.17476200000000	0.00000000000000	-0.08824900000000	0.00000000000000	-11.17059400000000	0.00000000000000	0.00000000000000	-25.62849900000000	0.00000000000000	
